<mxfile host="Electron" agent="Mozilla/5.0 (Windows NT 10.0; Win64; x64) AppleWebKit/537.36 (KHTML, like Gecko) draw.io/27.0.9 Chrome/134.0.6998.205 Electron/35.4.0 Safari/537.36" version="27.0.9">
  <diagram name="Page-1" id="e56a1550-8fbb-45ad-956c-1786394a9013">
    <mxGraphModel dx="2062" dy="582" grid="1" gridSize="10" guides="1" tooltips="1" connect="1" arrows="1" fold="1" page="1" pageScale="1" pageWidth="1100" pageHeight="850" background="none" math="0" shadow="0">
      <root>
        <mxCell id="0" />
        <mxCell id="1" parent="0" />
        <mxCell id="2e49270ec7c68f3f-1" value="Pre-processing" style="swimlane;html=1;fontStyle=0;childLayout=stackLayout;horizontal=1;startSize=20;fillColor=#e0e0e0;horizontalStack=0;resizeParent=1;resizeLast=0;collapsible=1;marginBottom=0;swimlaneFillColor=#ffffff;align=center;rounded=0;shadow=0;comic=0;labelBackgroundColor=none;strokeWidth=1;fontFamily=Verdana;fontSize=14" parent="1" vertex="1">
          <mxGeometry x="10" y="154" width="200" height="160" as="geometry" />
        </mxCell>
        <mxCell id="2e49270ec7c68f3f-2" value="id" style="shape=partialRectangle;top=0;left=0;right=0;bottom=0;html=1;align=left;verticalAlign=middle;fillColor=none;spacingLeft=60;spacingRight=4;whiteSpace=wrap;overflow=hidden;rotatable=0;points=[[0,0.5],[1,0.5]];portConstraint=eastwest;dropTarget=0;fontStyle=5;" parent="2e49270ec7c68f3f-1" vertex="1">
          <mxGeometry y="20" width="200" height="30" as="geometry" />
        </mxCell>
        <mxCell id="2e49270ec7c68f3f-3" value="PK" style="shape=partialRectangle;fontStyle=1;top=0;left=0;bottom=0;html=1;fillColor=none;align=left;verticalAlign=middle;spacingLeft=4;spacingRight=4;whiteSpace=wrap;overflow=hidden;rotatable=0;points=[];portConstraint=eastwest;part=1;" parent="2e49270ec7c68f3f-2" vertex="1" connectable="0">
          <mxGeometry width="40" height="30" as="geometry" />
        </mxCell>
        <mxCell id="2e49270ec7c68f3f-4" value="Dataset id" style="shape=partialRectangle;top=0;left=0;right=0;bottom=1;html=1;align=left;verticalAlign=middle;fillColor=none;spacingLeft=60;spacingRight=4;whiteSpace=wrap;overflow=hidden;rotatable=0;points=[[0,0.5],[1,0.5]];portConstraint=eastwest;dropTarget=0;fontStyle=5;" parent="2e49270ec7c68f3f-1" vertex="1">
          <mxGeometry y="50" width="200" height="30" as="geometry" />
        </mxCell>
        <mxCell id="2e49270ec7c68f3f-5" value="FK" style="shape=partialRectangle;fontStyle=1;top=0;left=0;bottom=0;html=1;fillColor=none;align=left;verticalAlign=middle;spacingLeft=4;spacingRight=4;whiteSpace=wrap;overflow=hidden;rotatable=0;points=[];portConstraint=eastwest;part=1;" parent="2e49270ec7c68f3f-4" vertex="1" connectable="0">
          <mxGeometry width="40" height="30" as="geometry" />
        </mxCell>
        <mxCell id="2e49270ec7c68f3f-6" value="Resize Dim" style="shape=partialRectangle;top=0;left=0;right=0;bottom=0;html=1;align=left;verticalAlign=top;fillColor=none;spacingLeft=60;spacingRight=4;whiteSpace=wrap;overflow=hidden;rotatable=0;points=[[0,0.5],[1,0.5]];portConstraint=eastwest;dropTarget=0;" parent="2e49270ec7c68f3f-1" vertex="1">
          <mxGeometry y="80" width="200" height="26" as="geometry" />
        </mxCell>
        <mxCell id="2e49270ec7c68f3f-7" value="" style="shape=partialRectangle;top=0;left=0;bottom=0;html=1;fillColor=none;align=left;verticalAlign=top;spacingLeft=4;spacingRight=4;whiteSpace=wrap;overflow=hidden;rotatable=0;points=[];portConstraint=eastwest;part=1;" parent="2e49270ec7c68f3f-6" vertex="1" connectable="0">
          <mxGeometry width="40" height="26" as="geometry" />
        </mxCell>
        <mxCell id="XIqaNWbFyxHHmohZTKNl-16" value="Normalization Params" style="shape=partialRectangle;top=0;left=0;right=0;bottom=0;html=1;align=left;verticalAlign=top;fillColor=none;spacingLeft=60;spacingRight=4;whiteSpace=wrap;overflow=hidden;rotatable=0;points=[[0,0.5],[1,0.5]];portConstraint=eastwest;dropTarget=0;" vertex="1" parent="2e49270ec7c68f3f-1">
          <mxGeometry y="106" width="200" height="26" as="geometry" />
        </mxCell>
        <mxCell id="XIqaNWbFyxHHmohZTKNl-17" value="" style="shape=partialRectangle;top=0;left=0;bottom=0;html=1;fillColor=none;align=left;verticalAlign=top;spacingLeft=4;spacingRight=4;whiteSpace=wrap;overflow=hidden;rotatable=0;points=[];portConstraint=eastwest;part=1;" vertex="1" connectable="0" parent="XIqaNWbFyxHHmohZTKNl-16">
          <mxGeometry width="40" height="26" as="geometry" />
        </mxCell>
        <mxCell id="XIqaNWbFyxHHmohZTKNl-18" value="Augmentations Applied" style="shape=partialRectangle;top=0;left=0;right=0;bottom=0;html=1;align=left;verticalAlign=top;fillColor=none;spacingLeft=60;spacingRight=4;whiteSpace=wrap;overflow=hidden;rotatable=0;points=[[0,0.5],[1,0.5]];portConstraint=eastwest;dropTarget=0;" vertex="1" parent="2e49270ec7c68f3f-1">
          <mxGeometry y="132" width="200" height="26" as="geometry" />
        </mxCell>
        <mxCell id="XIqaNWbFyxHHmohZTKNl-19" value="" style="shape=partialRectangle;top=0;left=0;bottom=0;html=1;fillColor=none;align=left;verticalAlign=top;spacingLeft=4;spacingRight=4;whiteSpace=wrap;overflow=hidden;rotatable=0;points=[];portConstraint=eastwest;part=1;" vertex="1" connectable="0" parent="XIqaNWbFyxHHmohZTKNl-18">
          <mxGeometry width="40" height="26" as="geometry" />
        </mxCell>
        <mxCell id="2e49270ec7c68f3f-8" value="System" style="swimlane;html=1;fontStyle=0;childLayout=stackLayout;horizontal=1;startSize=26;fillColor=#e0e0e0;horizontalStack=0;resizeParent=1;resizeLast=0;collapsible=1;marginBottom=0;swimlaneFillColor=#ffffff;align=center;rounded=0;shadow=0;comic=0;labelBackgroundColor=none;strokeWidth=1;fontFamily=Verdana;fontSize=14;swimlaneLine=1;" parent="1" vertex="1">
          <mxGeometry x="-170" y="200" width="100" height="160" as="geometry" />
        </mxCell>
        <mxCell id="2e49270ec7c68f3f-9" value="id" style="shape=partialRectangle;top=0;left=0;right=0;bottom=1;html=1;align=left;verticalAlign=middle;fillColor=none;spacingLeft=34;spacingRight=4;whiteSpace=wrap;overflow=hidden;rotatable=0;points=[[0,0.5],[1,0.5]];portConstraint=eastwest;dropTarget=0;fontStyle=5;" parent="2e49270ec7c68f3f-8" vertex="1">
          <mxGeometry y="26" width="100" height="30" as="geometry" />
        </mxCell>
        <mxCell id="2e49270ec7c68f3f-10" value="PK" style="shape=partialRectangle;top=0;left=0;bottom=0;html=1;fillColor=none;align=left;verticalAlign=middle;spacingLeft=4;spacingRight=4;whiteSpace=wrap;overflow=hidden;rotatable=0;points=[];portConstraint=eastwest;part=1;" parent="2e49270ec7c68f3f-9" vertex="1" connectable="0">
          <mxGeometry width="30" height="30" as="geometry" />
        </mxCell>
        <mxCell id="2e49270ec7c68f3f-11" value="Sever" style="shape=partialRectangle;top=0;left=0;right=0;bottom=0;html=1;align=left;verticalAlign=top;fillColor=none;spacingLeft=34;spacingRight=4;whiteSpace=wrap;overflow=hidden;rotatable=0;points=[[0,0.5],[1,0.5]];portConstraint=eastwest;dropTarget=0;" parent="2e49270ec7c68f3f-8" vertex="1">
          <mxGeometry y="56" width="100" height="26" as="geometry" />
        </mxCell>
        <mxCell id="2e49270ec7c68f3f-12" value="" style="shape=partialRectangle;top=0;left=0;bottom=0;html=1;fillColor=none;align=left;verticalAlign=top;spacingLeft=4;spacingRight=4;whiteSpace=wrap;overflow=hidden;rotatable=0;points=[];portConstraint=eastwest;part=1;" parent="2e49270ec7c68f3f-11" vertex="1" connectable="0">
          <mxGeometry width="30" height="26" as="geometry" />
        </mxCell>
        <mxCell id="2e49270ec7c68f3f-13" value="GPU" style="shape=partialRectangle;top=0;left=0;right=0;bottom=0;html=1;align=left;verticalAlign=top;fillColor=none;spacingLeft=34;spacingRight=4;whiteSpace=wrap;overflow=hidden;rotatable=0;points=[[0,0.5],[1,0.5]];portConstraint=eastwest;dropTarget=0;" parent="2e49270ec7c68f3f-8" vertex="1">
          <mxGeometry y="82" width="100" height="26" as="geometry" />
        </mxCell>
        <mxCell id="2e49270ec7c68f3f-14" value="" style="shape=partialRectangle;top=0;left=0;bottom=0;html=1;fillColor=none;align=left;verticalAlign=top;spacingLeft=4;spacingRight=4;whiteSpace=wrap;overflow=hidden;rotatable=0;points=[];portConstraint=eastwest;part=1;" parent="2e49270ec7c68f3f-13" vertex="1" connectable="0">
          <mxGeometry width="30" height="26" as="geometry" />
        </mxCell>
        <mxCell id="2e49270ec7c68f3f-15" value="Storage" style="shape=partialRectangle;top=0;left=0;right=0;bottom=0;html=1;align=left;verticalAlign=top;fillColor=none;spacingLeft=34;spacingRight=4;whiteSpace=wrap;overflow=hidden;rotatable=0;points=[[0,0.5],[1,0.5]];portConstraint=eastwest;dropTarget=0;" parent="2e49270ec7c68f3f-8" vertex="1">
          <mxGeometry y="108" width="100" height="26" as="geometry" />
        </mxCell>
        <mxCell id="2e49270ec7c68f3f-16" value="" style="shape=partialRectangle;top=0;left=0;bottom=0;html=1;fillColor=none;align=left;verticalAlign=top;spacingLeft=4;spacingRight=4;whiteSpace=wrap;overflow=hidden;rotatable=0;points=[];portConstraint=eastwest;part=1;" parent="2e49270ec7c68f3f-15" vertex="1" connectable="0">
          <mxGeometry width="30" height="26" as="geometry" />
        </mxCell>
        <mxCell id="XIqaNWbFyxHHmohZTKNl-41" value="Efficiency" style="shape=partialRectangle;top=0;left=0;right=0;bottom=0;html=1;align=left;verticalAlign=top;fillColor=none;spacingLeft=34;spacingRight=4;whiteSpace=wrap;overflow=hidden;rotatable=0;points=[[0,0.5],[1,0.5]];portConstraint=eastwest;dropTarget=0;" vertex="1" parent="2e49270ec7c68f3f-8">
          <mxGeometry y="134" width="100" height="26" as="geometry" />
        </mxCell>
        <mxCell id="XIqaNWbFyxHHmohZTKNl-42" value="" style="shape=partialRectangle;top=0;left=0;bottom=0;html=1;fillColor=none;align=left;verticalAlign=top;spacingLeft=4;spacingRight=4;whiteSpace=wrap;overflow=hidden;rotatable=0;points=[];portConstraint=eastwest;part=1;" vertex="1" connectable="0" parent="XIqaNWbFyxHHmohZTKNl-41">
          <mxGeometry width="30" height="26" as="geometry" />
        </mxCell>
        <mxCell id="2e49270ec7c68f3f-19" value="Segmentation Model" style="swimlane;html=1;fontStyle=0;childLayout=stackLayout;horizontal=1;startSize=26;fillColor=#e0e0e0;horizontalStack=0;resizeParent=1;resizeLast=0;collapsible=1;marginBottom=0;swimlaneFillColor=#ffffff;align=center;rounded=0;shadow=0;comic=0;labelBackgroundColor=none;strokeWidth=1;fontFamily=Verdana;fontSize=14" parent="1" vertex="1">
          <mxGeometry x="290" y="154" width="170" height="212" as="geometry" />
        </mxCell>
        <mxCell id="2e49270ec7c68f3f-20" value="id" style="shape=partialRectangle;top=0;left=0;right=0;bottom=1;html=1;align=left;verticalAlign=middle;fillColor=none;spacingLeft=34;spacingRight=4;whiteSpace=wrap;overflow=hidden;rotatable=0;points=[[0,0.5],[1,0.5]];portConstraint=eastwest;dropTarget=0;fontStyle=5;" parent="2e49270ec7c68f3f-19" vertex="1">
          <mxGeometry y="26" width="170" height="30" as="geometry" />
        </mxCell>
        <mxCell id="2e49270ec7c68f3f-21" value="PK" style="shape=partialRectangle;top=0;left=0;bottom=0;html=1;fillColor=none;align=left;verticalAlign=middle;spacingLeft=4;spacingRight=4;whiteSpace=wrap;overflow=hidden;rotatable=0;points=[];portConstraint=eastwest;part=1;" parent="2e49270ec7c68f3f-20" vertex="1" connectable="0">
          <mxGeometry width="30" height="30" as="geometry" />
        </mxCell>
        <mxCell id="2e49270ec7c68f3f-22" value="Model Type" style="shape=partialRectangle;top=0;left=0;right=0;bottom=0;html=1;align=left;verticalAlign=top;fillColor=none;spacingLeft=34;spacingRight=4;whiteSpace=wrap;overflow=hidden;rotatable=0;points=[[0,0.5],[1,0.5]];portConstraint=eastwest;dropTarget=0;" parent="2e49270ec7c68f3f-19" vertex="1">
          <mxGeometry y="56" width="170" height="26" as="geometry" />
        </mxCell>
        <mxCell id="2e49270ec7c68f3f-23" value="" style="shape=partialRectangle;top=0;left=0;bottom=0;html=1;fillColor=none;align=left;verticalAlign=top;spacingLeft=4;spacingRight=4;whiteSpace=wrap;overflow=hidden;rotatable=0;points=[];portConstraint=eastwest;part=1;" parent="2e49270ec7c68f3f-22" vertex="1" connectable="0">
          <mxGeometry width="30" height="26" as="geometry" />
        </mxCell>
        <mxCell id="2e49270ec7c68f3f-24" value="Architecture Details" style="shape=partialRectangle;top=0;left=0;right=0;bottom=0;html=1;align=left;verticalAlign=top;fillColor=none;spacingLeft=34;spacingRight=4;whiteSpace=wrap;overflow=hidden;rotatable=0;points=[[0,0.5],[1,0.5]];portConstraint=eastwest;dropTarget=0;" parent="2e49270ec7c68f3f-19" vertex="1">
          <mxGeometry y="82" width="170" height="26" as="geometry" />
        </mxCell>
        <mxCell id="2e49270ec7c68f3f-25" value="" style="shape=partialRectangle;top=0;left=0;bottom=0;html=1;fillColor=none;align=left;verticalAlign=top;spacingLeft=4;spacingRight=4;whiteSpace=wrap;overflow=hidden;rotatable=0;points=[];portConstraint=eastwest;part=1;" parent="2e49270ec7c68f3f-24" vertex="1" connectable="0">
          <mxGeometry width="30" height="26" as="geometry" />
        </mxCell>
        <mxCell id="2e49270ec7c68f3f-26" value="Loss Function" style="shape=partialRectangle;top=0;left=0;right=0;bottom=0;html=1;align=left;verticalAlign=top;fillColor=none;spacingLeft=34;spacingRight=4;whiteSpace=wrap;overflow=hidden;rotatable=0;points=[[0,0.5],[1,0.5]];portConstraint=eastwest;dropTarget=0;" parent="2e49270ec7c68f3f-19" vertex="1">
          <mxGeometry y="108" width="170" height="26" as="geometry" />
        </mxCell>
        <mxCell id="2e49270ec7c68f3f-27" value="" style="shape=partialRectangle;top=0;left=0;bottom=0;html=1;fillColor=none;align=left;verticalAlign=top;spacingLeft=4;spacingRight=4;whiteSpace=wrap;overflow=hidden;rotatable=0;points=[];portConstraint=eastwest;part=1;" parent="2e49270ec7c68f3f-26" vertex="1" connectable="0">
          <mxGeometry width="30" height="26" as="geometry" />
        </mxCell>
        <mxCell id="XIqaNWbFyxHHmohZTKNl-20" value="Optimizer" style="shape=partialRectangle;top=0;left=0;right=0;bottom=0;html=1;align=left;verticalAlign=top;fillColor=none;spacingLeft=34;spacingRight=4;whiteSpace=wrap;overflow=hidden;rotatable=0;points=[[0,0.5],[1,0.5]];portConstraint=eastwest;dropTarget=0;" vertex="1" parent="2e49270ec7c68f3f-19">
          <mxGeometry y="134" width="170" height="26" as="geometry" />
        </mxCell>
        <mxCell id="XIqaNWbFyxHHmohZTKNl-21" value="" style="shape=partialRectangle;top=0;left=0;bottom=0;html=1;fillColor=none;align=left;verticalAlign=top;spacingLeft=4;spacingRight=4;whiteSpace=wrap;overflow=hidden;rotatable=0;points=[];portConstraint=eastwest;part=1;" vertex="1" connectable="0" parent="XIqaNWbFyxHHmohZTKNl-20">
          <mxGeometry width="30" height="26" as="geometry" />
        </mxCell>
        <mxCell id="XIqaNWbFyxHHmohZTKNl-22" value="Training Accuracy" style="shape=partialRectangle;top=0;left=0;right=0;bottom=0;html=1;align=left;verticalAlign=top;fillColor=none;spacingLeft=34;spacingRight=4;whiteSpace=wrap;overflow=hidden;rotatable=0;points=[[0,0.5],[1,0.5]];portConstraint=eastwest;dropTarget=0;" vertex="1" parent="2e49270ec7c68f3f-19">
          <mxGeometry y="160" width="170" height="26" as="geometry" />
        </mxCell>
        <mxCell id="XIqaNWbFyxHHmohZTKNl-23" value="" style="shape=partialRectangle;top=0;left=0;bottom=0;html=1;fillColor=none;align=left;verticalAlign=top;spacingLeft=4;spacingRight=4;whiteSpace=wrap;overflow=hidden;rotatable=0;points=[];portConstraint=eastwest;part=1;" vertex="1" connectable="0" parent="XIqaNWbFyxHHmohZTKNl-22">
          <mxGeometry width="30" height="26" as="geometry" />
        </mxCell>
        <mxCell id="XIqaNWbFyxHHmohZTKNl-24" value="Validation Accuracy" style="shape=partialRectangle;top=0;left=0;right=0;bottom=0;html=1;align=left;verticalAlign=top;fillColor=none;spacingLeft=34;spacingRight=4;whiteSpace=wrap;overflow=hidden;rotatable=0;points=[[0,0.5],[1,0.5]];portConstraint=eastwest;dropTarget=0;" vertex="1" parent="2e49270ec7c68f3f-19">
          <mxGeometry y="186" width="170" height="26" as="geometry" />
        </mxCell>
        <mxCell id="XIqaNWbFyxHHmohZTKNl-25" value="" style="shape=partialRectangle;top=0;left=0;bottom=0;html=1;fillColor=none;align=left;verticalAlign=top;spacingLeft=4;spacingRight=4;whiteSpace=wrap;overflow=hidden;rotatable=0;points=[];portConstraint=eastwest;part=1;" vertex="1" connectable="0" parent="XIqaNWbFyxHHmohZTKNl-24">
          <mxGeometry width="30" height="26" as="geometry" />
        </mxCell>
        <mxCell id="2e49270ec7c68f3f-30" value="Admin" style="swimlane;html=1;fontStyle=0;childLayout=stackLayout;horizontal=1;startSize=26;fillColor=#e0e0e0;horizontalStack=0;resizeParent=1;resizeLast=0;collapsible=1;marginBottom=0;swimlaneFillColor=#ffffff;align=center;rounded=0;shadow=0;comic=0;labelBackgroundColor=none;strokeWidth=1;fontFamily=Verdana;fontSize=14" parent="1" vertex="1">
          <mxGeometry x="-390" y="390" width="130" height="108" as="geometry" />
        </mxCell>
        <mxCell id="2e49270ec7c68f3f-31" value="id" style="shape=partialRectangle;top=0;left=0;right=0;bottom=1;html=1;align=left;verticalAlign=middle;fillColor=none;spacingLeft=34;spacingRight=4;whiteSpace=wrap;overflow=hidden;rotatable=0;points=[[0,0.5],[1,0.5]];portConstraint=eastwest;dropTarget=0;fontStyle=5;" parent="2e49270ec7c68f3f-30" vertex="1">
          <mxGeometry y="26" width="130" height="30" as="geometry" />
        </mxCell>
        <mxCell id="2e49270ec7c68f3f-32" value="PK" style="shape=partialRectangle;top=0;left=0;bottom=0;html=1;fillColor=none;align=left;verticalAlign=middle;spacingLeft=4;spacingRight=4;whiteSpace=wrap;overflow=hidden;rotatable=0;points=[];portConstraint=eastwest;part=1;" parent="2e49270ec7c68f3f-31" vertex="1" connectable="0">
          <mxGeometry width="30" height="30" as="geometry" />
        </mxCell>
        <mxCell id="2e49270ec7c68f3f-33" value="Access Control" style="shape=partialRectangle;top=0;left=0;right=0;bottom=0;html=1;align=left;verticalAlign=top;fillColor=none;spacingLeft=34;spacingRight=4;whiteSpace=wrap;overflow=hidden;rotatable=0;points=[[0,0.5],[1,0.5]];portConstraint=eastwest;dropTarget=0;" parent="2e49270ec7c68f3f-30" vertex="1">
          <mxGeometry y="56" width="130" height="26" as="geometry" />
        </mxCell>
        <mxCell id="2e49270ec7c68f3f-34" value="" style="shape=partialRectangle;top=0;left=0;bottom=0;html=1;fillColor=none;align=left;verticalAlign=top;spacingLeft=4;spacingRight=4;whiteSpace=wrap;overflow=hidden;rotatable=0;points=[];portConstraint=eastwest;part=1;" parent="2e49270ec7c68f3f-33" vertex="1" connectable="0">
          <mxGeometry width="30" height="26" as="geometry" />
        </mxCell>
        <mxCell id="2e49270ec7c68f3f-35" value="Updates" style="shape=partialRectangle;top=0;left=0;right=0;bottom=0;html=1;align=left;verticalAlign=top;fillColor=none;spacingLeft=34;spacingRight=4;whiteSpace=wrap;overflow=hidden;rotatable=0;points=[[0,0.5],[1,0.5]];portConstraint=eastwest;dropTarget=0;" parent="2e49270ec7c68f3f-30" vertex="1">
          <mxGeometry y="82" width="130" height="26" as="geometry" />
        </mxCell>
        <mxCell id="2e49270ec7c68f3f-36" value="" style="shape=partialRectangle;top=0;left=0;bottom=0;html=1;fillColor=none;align=left;verticalAlign=top;spacingLeft=4;spacingRight=4;whiteSpace=wrap;overflow=hidden;rotatable=0;points=[];portConstraint=eastwest;part=1;" parent="2e49270ec7c68f3f-35" vertex="1" connectable="0">
          <mxGeometry width="30" height="26" as="geometry" />
        </mxCell>
        <mxCell id="2e49270ec7c68f3f-41" value="Prediction Output" style="swimlane;html=1;fontStyle=0;childLayout=stackLayout;horizontal=1;startSize=26;fillColor=#e0e0e0;horizontalStack=0;resizeParent=1;resizeLast=0;collapsible=1;marginBottom=0;swimlaneFillColor=#ffffff;align=center;rounded=0;shadow=0;comic=0;labelBackgroundColor=none;strokeWidth=1;fontFamily=Verdana;fontSize=14" parent="1" vertex="1">
          <mxGeometry x="370" y="400" width="170" height="194" as="geometry" />
        </mxCell>
        <mxCell id="2e49270ec7c68f3f-42" value="id" style="shape=partialRectangle;top=0;left=0;right=0;bottom=0;html=1;align=left;verticalAlign=middle;fillColor=none;spacingLeft=60;spacingRight=4;whiteSpace=wrap;overflow=hidden;rotatable=0;points=[[0,0.5],[1,0.5]];portConstraint=eastwest;dropTarget=0;fontStyle=5;" parent="2e49270ec7c68f3f-41" vertex="1">
          <mxGeometry y="26" width="170" height="30" as="geometry" />
        </mxCell>
        <mxCell id="2e49270ec7c68f3f-43" value="PK" style="shape=partialRectangle;fontStyle=1;top=0;left=0;bottom=0;html=1;fillColor=none;align=left;verticalAlign=middle;spacingLeft=4;spacingRight=4;whiteSpace=wrap;overflow=hidden;rotatable=0;points=[];portConstraint=eastwest;part=1;" parent="2e49270ec7c68f3f-42" vertex="1" connectable="0">
          <mxGeometry width="56" height="30" as="geometry" />
        </mxCell>
        <mxCell id="XIqaNWbFyxHHmohZTKNl-32" value="Trained Model id" style="shape=partialRectangle;top=0;left=0;right=0;bottom=0;html=1;align=left;verticalAlign=middle;fillColor=none;spacingLeft=60;spacingRight=4;whiteSpace=wrap;overflow=hidden;rotatable=0;points=[[0,0.5],[1,0.5]];portConstraint=eastwest;dropTarget=0;fontStyle=5;" vertex="1" parent="2e49270ec7c68f3f-41">
          <mxGeometry y="56" width="170" height="30" as="geometry" />
        </mxCell>
        <mxCell id="XIqaNWbFyxHHmohZTKNl-33" value="FK1" style="shape=partialRectangle;fontStyle=1;top=0;left=0;bottom=0;html=1;fillColor=none;align=left;verticalAlign=middle;spacingLeft=4;spacingRight=4;whiteSpace=wrap;overflow=hidden;rotatable=0;points=[];portConstraint=eastwest;part=1;" vertex="1" connectable="0" parent="XIqaNWbFyxHHmohZTKNl-32">
          <mxGeometry width="56" height="30" as="geometry" />
        </mxCell>
        <mxCell id="XIqaNWbFyxHHmohZTKNl-30" value="Image id&amp;nbsp;" style="shape=partialRectangle;top=0;left=0;right=0;bottom=1;html=1;align=left;verticalAlign=middle;fillColor=none;spacingLeft=60;spacingRight=4;whiteSpace=wrap;overflow=hidden;rotatable=0;points=[[0,0.5],[1,0.5]];portConstraint=eastwest;dropTarget=0;fontStyle=5;" vertex="1" parent="2e49270ec7c68f3f-41">
          <mxGeometry y="86" width="170" height="30" as="geometry" />
        </mxCell>
        <mxCell id="XIqaNWbFyxHHmohZTKNl-31" value="FK2" style="shape=partialRectangle;fontStyle=1;top=0;left=0;bottom=0;html=1;fillColor=none;align=left;verticalAlign=middle;spacingLeft=4;spacingRight=4;whiteSpace=wrap;overflow=hidden;rotatable=0;points=[];portConstraint=eastwest;part=1;" vertex="1" connectable="0" parent="XIqaNWbFyxHHmohZTKNl-30">
          <mxGeometry width="56" height="30" as="geometry" />
        </mxCell>
        <mxCell id="XIqaNWbFyxHHmohZTKNl-35" value="Output Mask Path" style="shape=partialRectangle;top=0;left=0;right=0;bottom=0;html=1;align=left;verticalAlign=top;fillColor=none;spacingLeft=60;spacingRight=4;whiteSpace=wrap;overflow=hidden;rotatable=0;points=[[0,0.5],[1,0.5]];portConstraint=eastwest;dropTarget=0;" vertex="1" parent="2e49270ec7c68f3f-41">
          <mxGeometry y="116" width="170" height="26" as="geometry" />
        </mxCell>
        <mxCell id="XIqaNWbFyxHHmohZTKNl-36" value="" style="shape=partialRectangle;top=0;left=0;bottom=0;html=1;fillColor=none;align=left;verticalAlign=top;spacingLeft=4;spacingRight=4;whiteSpace=wrap;overflow=hidden;rotatable=0;points=[];portConstraint=eastwest;part=1;" vertex="1" connectable="0" parent="XIqaNWbFyxHHmohZTKNl-35">
          <mxGeometry width="56" height="26" as="geometry" />
        </mxCell>
        <mxCell id="XIqaNWbFyxHHmohZTKNl-37" value="Inference Time" style="shape=partialRectangle;top=0;left=0;right=0;bottom=0;html=1;align=left;verticalAlign=top;fillColor=none;spacingLeft=60;spacingRight=4;whiteSpace=wrap;overflow=hidden;rotatable=0;points=[[0,0.5],[1,0.5]];portConstraint=eastwest;dropTarget=0;" vertex="1" parent="2e49270ec7c68f3f-41">
          <mxGeometry y="142" width="170" height="26" as="geometry" />
        </mxCell>
        <mxCell id="XIqaNWbFyxHHmohZTKNl-38" value="" style="shape=partialRectangle;top=0;left=0;bottom=0;html=1;fillColor=none;align=left;verticalAlign=top;spacingLeft=4;spacingRight=4;whiteSpace=wrap;overflow=hidden;rotatable=0;points=[];portConstraint=eastwest;part=1;" vertex="1" connectable="0" parent="XIqaNWbFyxHHmohZTKNl-37">
          <mxGeometry width="56" height="26" as="geometry" />
        </mxCell>
        <mxCell id="XIqaNWbFyxHHmohZTKNl-39" value="Confidence Score" style="shape=partialRectangle;top=0;left=0;right=0;bottom=0;html=1;align=left;verticalAlign=top;fillColor=none;spacingLeft=60;spacingRight=4;whiteSpace=wrap;overflow=hidden;rotatable=0;points=[[0,0.5],[1,0.5]];portConstraint=eastwest;dropTarget=0;" vertex="1" parent="2e49270ec7c68f3f-41">
          <mxGeometry y="168" width="170" height="26" as="geometry" />
        </mxCell>
        <mxCell id="XIqaNWbFyxHHmohZTKNl-40" value="" style="shape=partialRectangle;top=0;left=0;bottom=0;html=1;fillColor=none;align=left;verticalAlign=top;spacingLeft=4;spacingRight=4;whiteSpace=wrap;overflow=hidden;rotatable=0;points=[];portConstraint=eastwest;part=1;" vertex="1" connectable="0" parent="XIqaNWbFyxHHmohZTKNl-39">
          <mxGeometry width="56" height="26" as="geometry" />
        </mxCell>
        <mxCell id="2e49270ec7c68f3f-48" value="Trained Model" style="swimlane;html=1;fontStyle=0;childLayout=stackLayout;horizontal=1;startSize=26;fillColor=#e0e0e0;horizontalStack=0;resizeParent=1;resizeLast=0;collapsible=1;marginBottom=0;swimlaneFillColor=#ffffff;align=center;rounded=0;shadow=0;comic=0;labelBackgroundColor=none;strokeWidth=1;fontFamily=Verdana;fontSize=14" parent="1" vertex="1">
          <mxGeometry x="20" y="400" width="290" height="160" as="geometry" />
        </mxCell>
        <mxCell id="2e49270ec7c68f3f-49" value="id" style="shape=partialRectangle;top=0;left=0;right=0;bottom=0;html=1;align=left;verticalAlign=middle;fillColor=none;spacingLeft=60;spacingRight=4;whiteSpace=wrap;overflow=hidden;rotatable=0;points=[[0,0.5],[1,0.5]];portConstraint=eastwest;dropTarget=0;fontStyle=5;" parent="2e49270ec7c68f3f-48" vertex="1">
          <mxGeometry y="26" width="290" height="30" as="geometry" />
        </mxCell>
        <mxCell id="2e49270ec7c68f3f-50" value="PK" style="shape=partialRectangle;fontStyle=1;top=0;left=0;bottom=0;html=1;fillColor=none;align=left;verticalAlign=middle;spacingLeft=4;spacingRight=4;whiteSpace=wrap;overflow=hidden;rotatable=0;points=[];portConstraint=eastwest;part=1;" parent="2e49270ec7c68f3f-49" vertex="1" connectable="0">
          <mxGeometry width="56" height="30" as="geometry" />
        </mxCell>
        <mxCell id="2e49270ec7c68f3f-51" value="&lt;div style=&quot;text-align: center;&quot;&gt;&lt;span style=&quot;background-color: transparent; color: light-dark(rgb(0, 0, 0), rgb(255, 255, 255));&quot;&gt;Segmentation model id&amp;nbsp;&lt;/span&gt;&lt;/div&gt;" style="shape=partialRectangle;top=0;left=0;right=0;bottom=1;html=1;align=left;verticalAlign=middle;fillColor=none;spacingLeft=60;spacingRight=4;whiteSpace=wrap;overflow=hidden;rotatable=0;points=[[0,0.5],[1,0.5]];portConstraint=eastwest;dropTarget=0;fontStyle=5;" parent="2e49270ec7c68f3f-48" vertex="1">
          <mxGeometry y="56" width="290" height="30" as="geometry" />
        </mxCell>
        <mxCell id="2e49270ec7c68f3f-52" value="FK" style="shape=partialRectangle;fontStyle=1;top=0;left=0;bottom=0;html=1;fillColor=none;align=left;verticalAlign=middle;spacingLeft=4;spacingRight=4;whiteSpace=wrap;overflow=hidden;rotatable=0;points=[];portConstraint=eastwest;part=1;" parent="2e49270ec7c68f3f-51" vertex="1" connectable="0">
          <mxGeometry width="56" height="30" as="geometry" />
        </mxCell>
        <mxCell id="2e49270ec7c68f3f-53" value="Epoch" style="shape=partialRectangle;top=0;left=0;right=0;bottom=0;html=1;align=left;verticalAlign=top;fillColor=none;spacingLeft=60;spacingRight=4;whiteSpace=wrap;overflow=hidden;rotatable=0;points=[[0,0.5],[1,0.5]];portConstraint=eastwest;dropTarget=0;" parent="2e49270ec7c68f3f-48" vertex="1">
          <mxGeometry y="86" width="290" height="26" as="geometry" />
        </mxCell>
        <mxCell id="2e49270ec7c68f3f-54" value="" style="shape=partialRectangle;top=0;left=0;bottom=0;html=1;fillColor=none;align=left;verticalAlign=top;spacingLeft=4;spacingRight=4;whiteSpace=wrap;overflow=hidden;rotatable=0;points=[];portConstraint=eastwest;part=1;" parent="2e49270ec7c68f3f-53" vertex="1" connectable="0">
          <mxGeometry width="56" height="26" as="geometry" />
        </mxCell>
        <mxCell id="XIqaNWbFyxHHmohZTKNl-26" value="Saved Path" style="shape=partialRectangle;top=0;left=0;right=0;bottom=0;html=1;align=left;verticalAlign=top;fillColor=none;spacingLeft=60;spacingRight=4;whiteSpace=wrap;overflow=hidden;rotatable=0;points=[[0,0.5],[1,0.5]];portConstraint=eastwest;dropTarget=0;" vertex="1" parent="2e49270ec7c68f3f-48">
          <mxGeometry y="112" width="290" height="26" as="geometry" />
        </mxCell>
        <mxCell id="XIqaNWbFyxHHmohZTKNl-27" value="" style="shape=partialRectangle;top=0;left=0;bottom=0;html=1;fillColor=none;align=left;verticalAlign=top;spacingLeft=4;spacingRight=4;whiteSpace=wrap;overflow=hidden;rotatable=0;points=[];portConstraint=eastwest;part=1;" vertex="1" connectable="0" parent="XIqaNWbFyxHHmohZTKNl-26">
          <mxGeometry width="56" height="26" as="geometry" />
        </mxCell>
        <mxCell id="XIqaNWbFyxHHmohZTKNl-28" value="Evaluation Metrics&amp;nbsp;&lt;span style=&quot;background-color: transparent; color: light-dark(rgb(0, 0, 0), rgb(255, 255, 255));&quot;&gt;(IoU, Dice, Accuracy)&lt;/span&gt;" style="shape=partialRectangle;top=0;left=0;right=0;bottom=0;html=1;align=left;verticalAlign=top;fillColor=none;spacingLeft=60;spacingRight=4;whiteSpace=wrap;overflow=hidden;rotatable=0;points=[[0,0.5],[1,0.5]];portConstraint=eastwest;dropTarget=0;" vertex="1" parent="2e49270ec7c68f3f-48">
          <mxGeometry y="138" width="290" height="22" as="geometry" />
        </mxCell>
        <mxCell id="XIqaNWbFyxHHmohZTKNl-29" value="" style="shape=partialRectangle;top=0;left=0;bottom=0;html=1;fillColor=none;align=left;verticalAlign=top;spacingLeft=4;spacingRight=4;whiteSpace=wrap;overflow=hidden;rotatable=0;points=[];portConstraint=eastwest;part=1;" vertex="1" connectable="0" parent="XIqaNWbFyxHHmohZTKNl-28">
          <mxGeometry width="56" height="22" as="geometry" />
        </mxCell>
        <mxCell id="2e49270ec7c68f3f-80" value="Image Dataset" style="swimlane;html=1;fontStyle=0;childLayout=stackLayout;horizontal=1;startSize=26;fillColor=#e0e0e0;horizontalStack=0;resizeParent=1;resizeLast=0;collapsible=1;marginBottom=0;swimlaneFillColor=#ffffff;align=center;rounded=0;shadow=0;comic=0;labelBackgroundColor=none;strokeWidth=1;fontFamily=Verdana;fontSize=14" parent="1" vertex="1">
          <mxGeometry x="-170" y="416" width="140" height="186" as="geometry">
            <mxRectangle x="-200" y="298" width="140" height="30" as="alternateBounds" />
          </mxGeometry>
        </mxCell>
        <mxCell id="2e49270ec7c68f3f-81" value="id" style="shape=partialRectangle;top=0;left=0;right=0;bottom=1;html=1;align=left;verticalAlign=middle;fillColor=none;spacingLeft=34;spacingRight=4;whiteSpace=wrap;overflow=hidden;rotatable=0;points=[[0,0.5],[1,0.5]];portConstraint=eastwest;dropTarget=0;fontStyle=5;" parent="2e49270ec7c68f3f-80" vertex="1">
          <mxGeometry y="26" width="140" height="30" as="geometry" />
        </mxCell>
        <mxCell id="2e49270ec7c68f3f-82" value="PK" style="shape=partialRectangle;top=0;left=0;bottom=0;html=1;fillColor=none;align=left;verticalAlign=middle;spacingLeft=4;spacingRight=4;whiteSpace=wrap;overflow=hidden;rotatable=0;points=[];portConstraint=eastwest;part=1;" parent="2e49270ec7c68f3f-81" vertex="1" connectable="0">
          <mxGeometry width="30" height="30" as="geometry" />
        </mxCell>
        <mxCell id="2e49270ec7c68f3f-83" value="Name" style="shape=partialRectangle;top=0;left=0;right=0;bottom=0;html=1;align=left;verticalAlign=top;fillColor=none;spacingLeft=34;spacingRight=4;whiteSpace=wrap;overflow=hidden;rotatable=0;points=[[0,0.5],[1,0.5]];portConstraint=eastwest;dropTarget=0;" parent="2e49270ec7c68f3f-80" vertex="1">
          <mxGeometry y="56" width="140" height="26" as="geometry" />
        </mxCell>
        <mxCell id="2e49270ec7c68f3f-84" value="" style="shape=partialRectangle;top=0;left=0;bottom=0;html=1;fillColor=none;align=left;verticalAlign=top;spacingLeft=4;spacingRight=4;whiteSpace=wrap;overflow=hidden;rotatable=0;points=[];portConstraint=eastwest;part=1;" parent="2e49270ec7c68f3f-83" vertex="1" connectable="0">
          <mxGeometry width="30" height="26" as="geometry" />
        </mxCell>
        <mxCell id="2e49270ec7c68f3f-85" value="Label" style="shape=partialRectangle;top=0;left=0;right=0;bottom=0;html=1;align=left;verticalAlign=top;fillColor=none;spacingLeft=34;spacingRight=4;whiteSpace=wrap;overflow=hidden;rotatable=0;points=[[0,0.5],[1,0.5]];portConstraint=eastwest;dropTarget=0;" parent="2e49270ec7c68f3f-80" vertex="1">
          <mxGeometry y="82" width="140" height="26" as="geometry" />
        </mxCell>
        <mxCell id="2e49270ec7c68f3f-86" value="" style="shape=partialRectangle;top=0;left=0;bottom=0;html=1;fillColor=none;align=left;verticalAlign=top;spacingLeft=4;spacingRight=4;whiteSpace=wrap;overflow=hidden;rotatable=0;points=[];portConstraint=eastwest;part=1;" parent="2e49270ec7c68f3f-85" vertex="1" connectable="0">
          <mxGeometry width="30" height="26" as="geometry" />
        </mxCell>
        <mxCell id="2e49270ec7c68f3f-87" value="Resolution" style="shape=partialRectangle;top=0;left=0;right=0;bottom=0;html=1;align=left;verticalAlign=top;fillColor=none;spacingLeft=34;spacingRight=4;whiteSpace=wrap;overflow=hidden;rotatable=0;points=[[0,0.5],[1,0.5]];portConstraint=eastwest;dropTarget=0;" parent="2e49270ec7c68f3f-80" vertex="1">
          <mxGeometry y="108" width="140" height="26" as="geometry" />
        </mxCell>
        <mxCell id="2e49270ec7c68f3f-88" value="" style="shape=partialRectangle;top=0;left=0;bottom=0;html=1;fillColor=none;align=left;verticalAlign=top;spacingLeft=4;spacingRight=4;whiteSpace=wrap;overflow=hidden;rotatable=0;points=[];portConstraint=eastwest;part=1;" parent="2e49270ec7c68f3f-87" vertex="1" connectable="0">
          <mxGeometry width="30" height="26" as="geometry" />
        </mxCell>
        <mxCell id="XIqaNWbFyxHHmohZTKNl-1" value="Path" style="shape=partialRectangle;top=0;left=0;right=0;bottom=0;html=1;align=left;verticalAlign=top;fillColor=none;spacingLeft=34;spacingRight=4;whiteSpace=wrap;overflow=hidden;rotatable=0;points=[[0,0.5],[1,0.5]];portConstraint=eastwest;dropTarget=0;" vertex="1" parent="2e49270ec7c68f3f-80">
          <mxGeometry y="134" width="140" height="26" as="geometry" />
        </mxCell>
        <mxCell id="XIqaNWbFyxHHmohZTKNl-2" value="" style="shape=partialRectangle;top=0;left=0;bottom=0;html=1;fillColor=none;align=left;verticalAlign=top;spacingLeft=4;spacingRight=4;whiteSpace=wrap;overflow=hidden;rotatable=0;points=[];portConstraint=eastwest;part=1;" vertex="1" connectable="0" parent="XIqaNWbFyxHHmohZTKNl-1">
          <mxGeometry width="30" height="26" as="geometry" />
        </mxCell>
        <mxCell id="XIqaNWbFyxHHmohZTKNl-3" value="Pixels" style="shape=partialRectangle;top=0;left=0;right=0;bottom=0;html=1;align=left;verticalAlign=top;fillColor=none;spacingLeft=34;spacingRight=4;whiteSpace=wrap;overflow=hidden;rotatable=0;points=[[0,0.5],[1,0.5]];portConstraint=eastwest;dropTarget=0;" vertex="1" parent="2e49270ec7c68f3f-80">
          <mxGeometry y="160" width="140" height="26" as="geometry" />
        </mxCell>
        <mxCell id="XIqaNWbFyxHHmohZTKNl-4" value="" style="shape=partialRectangle;top=0;left=0;bottom=0;html=1;fillColor=none;align=left;verticalAlign=top;spacingLeft=4;spacingRight=4;whiteSpace=wrap;overflow=hidden;rotatable=0;points=[];portConstraint=eastwest;part=1;" vertex="1" connectable="0" parent="XIqaNWbFyxHHmohZTKNl-3">
          <mxGeometry width="30" height="26" as="geometry" />
        </mxCell>
        <mxCell id="XIqaNWbFyxHHmohZTKNl-43" value="Researcher" style="swimlane;html=1;fontStyle=0;childLayout=stackLayout;horizontal=1;startSize=26;fillColor=#e0e0e0;horizontalStack=0;resizeParent=1;resizeLast=0;collapsible=1;marginBottom=0;swimlaneFillColor=#ffffff;align=center;rounded=0;shadow=0;comic=0;labelBackgroundColor=none;strokeWidth=1;fontFamily=Verdana;fontSize=14" vertex="1" parent="1">
          <mxGeometry x="-390" y="576" width="130" height="108" as="geometry" />
        </mxCell>
        <mxCell id="XIqaNWbFyxHHmohZTKNl-44" value="id" style="shape=partialRectangle;top=0;left=0;right=0;bottom=1;html=1;align=left;verticalAlign=middle;fillColor=none;spacingLeft=34;spacingRight=4;whiteSpace=wrap;overflow=hidden;rotatable=0;points=[[0,0.5],[1,0.5]];portConstraint=eastwest;dropTarget=0;fontStyle=5;" vertex="1" parent="XIqaNWbFyxHHmohZTKNl-43">
          <mxGeometry y="26" width="130" height="30" as="geometry" />
        </mxCell>
        <mxCell id="XIqaNWbFyxHHmohZTKNl-45" value="PK" style="shape=partialRectangle;top=0;left=0;bottom=0;html=1;fillColor=none;align=left;verticalAlign=middle;spacingLeft=4;spacingRight=4;whiteSpace=wrap;overflow=hidden;rotatable=0;points=[];portConstraint=eastwest;part=1;" vertex="1" connectable="0" parent="XIqaNWbFyxHHmohZTKNl-44">
          <mxGeometry width="30" height="30" as="geometry" />
        </mxCell>
        <mxCell id="XIqaNWbFyxHHmohZTKNl-46" value="Upload Dataset" style="shape=partialRectangle;top=0;left=0;right=0;bottom=0;html=1;align=left;verticalAlign=top;fillColor=none;spacingLeft=34;spacingRight=4;whiteSpace=wrap;overflow=hidden;rotatable=0;points=[[0,0.5],[1,0.5]];portConstraint=eastwest;dropTarget=0;" vertex="1" parent="XIqaNWbFyxHHmohZTKNl-43">
          <mxGeometry y="56" width="130" height="26" as="geometry" />
        </mxCell>
        <mxCell id="XIqaNWbFyxHHmohZTKNl-47" value="" style="shape=partialRectangle;top=0;left=0;bottom=0;html=1;fillColor=none;align=left;verticalAlign=top;spacingLeft=4;spacingRight=4;whiteSpace=wrap;overflow=hidden;rotatable=0;points=[];portConstraint=eastwest;part=1;" vertex="1" connectable="0" parent="XIqaNWbFyxHHmohZTKNl-46">
          <mxGeometry width="30" height="26" as="geometry" />
        </mxCell>
        <mxCell id="XIqaNWbFyxHHmohZTKNl-48" value="Get Results" style="shape=partialRectangle;top=0;left=0;right=0;bottom=0;html=1;align=left;verticalAlign=top;fillColor=none;spacingLeft=34;spacingRight=4;whiteSpace=wrap;overflow=hidden;rotatable=0;points=[[0,0.5],[1,0.5]];portConstraint=eastwest;dropTarget=0;" vertex="1" parent="XIqaNWbFyxHHmohZTKNl-43">
          <mxGeometry y="82" width="130" height="26" as="geometry" />
        </mxCell>
        <mxCell id="XIqaNWbFyxHHmohZTKNl-49" value="" style="shape=partialRectangle;top=0;left=0;bottom=0;html=1;fillColor=none;align=left;verticalAlign=top;spacingLeft=4;spacingRight=4;whiteSpace=wrap;overflow=hidden;rotatable=0;points=[];portConstraint=eastwest;part=1;" vertex="1" connectable="0" parent="XIqaNWbFyxHHmohZTKNl-48">
          <mxGeometry width="30" height="26" as="geometry" />
        </mxCell>
        <mxCell id="XIqaNWbFyxHHmohZTKNl-50" value="Developer" style="swimlane;html=1;fontStyle=0;childLayout=stackLayout;horizontal=1;startSize=26;fillColor=#e0e0e0;horizontalStack=0;resizeParent=1;resizeLast=0;collapsible=1;marginBottom=0;swimlaneFillColor=#ffffff;align=center;rounded=0;shadow=0;comic=0;labelBackgroundColor=none;strokeWidth=1;fontFamily=Verdana;fontSize=14;swimlaneLine=1;" vertex="1" parent="1">
          <mxGeometry x="-400" y="200" width="120" height="134" as="geometry" />
        </mxCell>
        <mxCell id="XIqaNWbFyxHHmohZTKNl-51" value="id" style="shape=partialRectangle;top=0;left=0;right=0;bottom=1;html=1;align=left;verticalAlign=middle;fillColor=none;spacingLeft=34;spacingRight=4;whiteSpace=wrap;overflow=hidden;rotatable=0;points=[[0,0.5],[1,0.5]];portConstraint=eastwest;dropTarget=0;fontStyle=5;" vertex="1" parent="XIqaNWbFyxHHmohZTKNl-50">
          <mxGeometry y="26" width="120" height="30" as="geometry" />
        </mxCell>
        <mxCell id="XIqaNWbFyxHHmohZTKNl-52" value="PK" style="shape=partialRectangle;top=0;left=0;bottom=0;html=1;fillColor=none;align=left;verticalAlign=middle;spacingLeft=4;spacingRight=4;whiteSpace=wrap;overflow=hidden;rotatable=0;points=[];portConstraint=eastwest;part=1;" vertex="1" connectable="0" parent="XIqaNWbFyxHHmohZTKNl-51">
          <mxGeometry width="30" height="30" as="geometry" />
        </mxCell>
        <mxCell id="XIqaNWbFyxHHmohZTKNl-53" value="Train Dataset" style="shape=partialRectangle;top=0;left=0;right=0;bottom=0;html=1;align=left;verticalAlign=top;fillColor=none;spacingLeft=34;spacingRight=4;whiteSpace=wrap;overflow=hidden;rotatable=0;points=[[0,0.5],[1,0.5]];portConstraint=eastwest;dropTarget=0;" vertex="1" parent="XIqaNWbFyxHHmohZTKNl-50">
          <mxGeometry y="56" width="120" height="26" as="geometry" />
        </mxCell>
        <mxCell id="XIqaNWbFyxHHmohZTKNl-54" value="" style="shape=partialRectangle;top=0;left=0;bottom=0;html=1;fillColor=none;align=left;verticalAlign=top;spacingLeft=4;spacingRight=4;whiteSpace=wrap;overflow=hidden;rotatable=0;points=[];portConstraint=eastwest;part=1;" vertex="1" connectable="0" parent="XIqaNWbFyxHHmohZTKNl-53">
          <mxGeometry width="30" height="26" as="geometry" />
        </mxCell>
        <mxCell id="XIqaNWbFyxHHmohZTKNl-55" value="Tunning" style="shape=partialRectangle;top=0;left=0;right=0;bottom=0;html=1;align=left;verticalAlign=top;fillColor=none;spacingLeft=34;spacingRight=4;whiteSpace=wrap;overflow=hidden;rotatable=0;points=[[0,0.5],[1,0.5]];portConstraint=eastwest;dropTarget=0;" vertex="1" parent="XIqaNWbFyxHHmohZTKNl-50">
          <mxGeometry y="82" width="120" height="26" as="geometry" />
        </mxCell>
        <mxCell id="XIqaNWbFyxHHmohZTKNl-56" value="" style="shape=partialRectangle;top=0;left=0;bottom=0;html=1;fillColor=none;align=left;verticalAlign=top;spacingLeft=4;spacingRight=4;whiteSpace=wrap;overflow=hidden;rotatable=0;points=[];portConstraint=eastwest;part=1;" vertex="1" connectable="0" parent="XIqaNWbFyxHHmohZTKNl-55">
          <mxGeometry width="30" height="26" as="geometry" />
        </mxCell>
        <mxCell id="XIqaNWbFyxHHmohZTKNl-57" value="Submit" style="shape=partialRectangle;top=0;left=0;right=0;bottom=0;html=1;align=left;verticalAlign=top;fillColor=none;spacingLeft=34;spacingRight=4;whiteSpace=wrap;overflow=hidden;rotatable=0;points=[[0,0.5],[1,0.5]];portConstraint=eastwest;dropTarget=0;" vertex="1" parent="XIqaNWbFyxHHmohZTKNl-50">
          <mxGeometry y="108" width="120" height="26" as="geometry" />
        </mxCell>
        <mxCell id="XIqaNWbFyxHHmohZTKNl-58" value="" style="shape=partialRectangle;top=0;left=0;bottom=0;html=1;fillColor=none;align=left;verticalAlign=top;spacingLeft=4;spacingRight=4;whiteSpace=wrap;overflow=hidden;rotatable=0;points=[];portConstraint=eastwest;part=1;" vertex="1" connectable="0" parent="XIqaNWbFyxHHmohZTKNl-57">
          <mxGeometry width="30" height="26" as="geometry" />
        </mxCell>
        <mxCell id="XIqaNWbFyxHHmohZTKNl-66" value="" style="edgeStyle=entityRelationEdgeStyle;fontSize=12;html=1;endArrow=ERoneToMany;startArrow=ERmandOne;rounded=0;entryX=1.06;entryY=0.081;entryDx=0;entryDy=0;entryPerimeter=0;" edge="1" parent="1" target="2e49270ec7c68f3f-8">
          <mxGeometry width="100" height="100" relative="1" as="geometry">
            <mxPoint x="-30" y="430" as="sourcePoint" />
            <mxPoint x="-310" y="190.00000000000003" as="targetPoint" />
            <Array as="points">
              <mxPoint x="-30" y="330" />
            </Array>
          </mxGeometry>
        </mxCell>
        <mxCell id="XIqaNWbFyxHHmohZTKNl-67" value="" style="edgeStyle=entityRelationEdgeStyle;fontSize=12;html=1;endArrow=ERmany;startArrow=ERmany;rounded=0;exitX=1.08;exitY=-0.006;exitDx=0;exitDy=0;exitPerimeter=0;" edge="1" parent="1" source="2e49270ec7c68f3f-8">
          <mxGeometry width="100" height="100" relative="1" as="geometry">
            <mxPoint x="-110" y="180" as="sourcePoint" />
            <mxPoint y="161" as="targetPoint" />
          </mxGeometry>
        </mxCell>
        <mxCell id="XIqaNWbFyxHHmohZTKNl-68" value="" style="edgeStyle=entityRelationEdgeStyle;fontSize=12;html=1;endArrow=ERmandOne;startArrow=ERmandOne;rounded=0;" edge="1" parent="1">
          <mxGeometry width="100" height="100" relative="1" as="geometry">
            <mxPoint x="220" y="170" as="sourcePoint" />
            <mxPoint x="280" y="170" as="targetPoint" />
          </mxGeometry>
        </mxCell>
        <mxCell id="XIqaNWbFyxHHmohZTKNl-69" value="" style="edgeStyle=entityRelationEdgeStyle;fontSize=12;html=1;endArrow=ERoneToMany;rounded=0;exitX=0.69;exitY=-0.006;exitDx=0;exitDy=0;exitPerimeter=0;" edge="1" parent="1" source="2e49270ec7c68f3f-48">
          <mxGeometry width="100" height="100" relative="1" as="geometry">
            <mxPoint x="221" y="410" as="sourcePoint" />
            <mxPoint x="280" y="180" as="targetPoint" />
            <Array as="points">
              <mxPoint x="250" y="350" />
              <mxPoint x="230" y="350" />
            </Array>
          </mxGeometry>
        </mxCell>
        <mxCell id="XIqaNWbFyxHHmohZTKNl-70" value="" style="edgeStyle=entityRelationEdgeStyle;fontSize=12;html=1;endArrow=ERoneToMany;rounded=0;entryX=-0.041;entryY=0.046;entryDx=0;entryDy=0;entryPerimeter=0;" edge="1" parent="1" target="2e49270ec7c68f3f-41">
          <mxGeometry width="100" height="100" relative="1" as="geometry">
            <mxPoint x="320" y="409" as="sourcePoint" />
            <mxPoint x="280" y="340" as="targetPoint" />
          </mxGeometry>
        </mxCell>
        <mxCell id="XIqaNWbFyxHHmohZTKNl-71" value="" style="edgeStyle=entityRelationEdgeStyle;fontSize=12;html=1;endArrow=ERoneToMany;rounded=0;entryX=1.054;entryY=0.102;entryDx=0;entryDy=0;entryPerimeter=0;" edge="1" parent="1" source="XIqaNWbFyxHHmohZTKNl-41" target="XIqaNWbFyxHHmohZTKNl-43">
          <mxGeometry width="100" height="100" relative="1" as="geometry">
            <mxPoint x="-20" y="440" as="sourcePoint" />
            <mxPoint x="80" y="340" as="targetPoint" />
          </mxGeometry>
        </mxCell>
        <mxCell id="XIqaNWbFyxHHmohZTKNl-72" value="" style="edgeStyle=entityRelationEdgeStyle;fontSize=12;html=1;endArrow=ERzeroToMany;startArrow=ERzeroToOne;rounded=0;entryX=1.025;entryY=0.09;entryDx=0;entryDy=0;entryPerimeter=0;" edge="1" parent="1" target="XIqaNWbFyxHHmohZTKNl-50">
          <mxGeometry width="100" height="100" relative="1" as="geometry">
            <mxPoint x="-259" y="400" as="sourcePoint" />
            <mxPoint x="-170" y="290" as="targetPoint" />
          </mxGeometry>
        </mxCell>
        <mxCell id="XIqaNWbFyxHHmohZTKNl-73" value="" style="edgeStyle=entityRelationEdgeStyle;fontSize=12;html=1;endArrow=ERzeroToOne;startArrow=ERmandOne;rounded=0;exitX=-0.04;exitY=0.069;exitDx=0;exitDy=0;exitPerimeter=0;entryX=1.031;entryY=-0.192;entryDx=0;entryDy=0;entryPerimeter=0;" edge="1" parent="1" source="2e49270ec7c68f3f-8" target="2e49270ec7c68f3f-33">
          <mxGeometry width="100" height="100" relative="1" as="geometry">
            <mxPoint x="-230" y="130" as="sourcePoint" />
            <mxPoint x="-260" y="390" as="targetPoint" />
            <Array as="points">
              <mxPoint x="-240" y="300" />
            </Array>
          </mxGeometry>
        </mxCell>
        <mxCell id="XIqaNWbFyxHHmohZTKNl-74" value="" style="edgeStyle=entityRelationEdgeStyle;fontSize=12;html=1;endArrow=ERoneToMany;startArrow=ERmandOne;rounded=0;" edge="1" parent="1">
          <mxGeometry width="100" height="100" relative="1" as="geometry">
            <mxPoint x="-180" y="200" as="sourcePoint" />
            <mxPoint x="-270" y="200" as="targetPoint" />
            <Array as="points">
              <mxPoint x="-180" y="200" />
            </Array>
          </mxGeometry>
        </mxCell>
        <mxCell id="XIqaNWbFyxHHmohZTKNl-75" value="ENTITY RELATION DIAGRAM" style="text;html=1;align=center;verticalAlign=middle;resizable=0;points=[];autosize=1;strokeColor=none;fillColor=none;" vertex="1" parent="1">
          <mxGeometry x="-50" y="110" width="190" height="30" as="geometry" />
        </mxCell>
      </root>
    </mxGraphModel>
  </diagram>
</mxfile>
